<svg xmlns="http://www.w3.org/2000/svg" xmlns:xlink="http://www.w3.org/1999/xlink" id="Capa_1" width="512" height="512" x="0" y="0" version="1.1" viewBox="0 0 88 88" style="enable-background:new 0 0 88 88" xml:space="preserve"><g><g><path fill="#FFF" d="M0,44c0,1.396,1.398,2.395,1.398,2.395L38.71,71.146c2.862,1.91,5.21,0.504,5.21-3.123V19.975 c0-3.626-2.348-5.03-5.21-3.122L1.398,41.604C1.398,41.604,0,42.604,0,44z M45.379,44c0,1.396,1.396,2.395,1.396,2.395 l36.016,24.752C85.654,73.057,88,71.65,88,68.023V19.975c0-3.626-2.346-5.03-5.209-3.122L46.775,41.604 C46.775,41.604,45.379,42.604,45.379,44z"/></g></g></svg>